<?xml version="1.0" encoding="UTF-8" standalone="no"?>
<!-- Created with Inkscape (http://www.inkscape.org/) -->

<svg
   version="1.1"
   id="svg1"
   width="160.21776"
   height="163.00974"
   viewBox="0 0 160.21776 163.00974"
   sodipodi:docname="ESCUDO.svg"
   inkscape:version="1.4.2 (f4327f4, 2025-05-13)"
   xmlns:inkscape="http://www.inkscape.org/namespaces/inkscape"
   xmlns:sodipodi="http://sodipodi.sourceforge.net/DTD/sodipodi-0.dtd"
   xmlns="http://www.w3.org/2000/svg"
   xmlns:svg="http://www.w3.org/2000/svg">
  <defs
     id="defs1" />
  <sodipodi:namedview
     id="namedview1"
     pagecolor="#ffffff"
     bordercolor="#000000"
     borderopacity="0.25"
     inkscape:showpageshadow="2"
     inkscape:pageopacity="0.0"
     inkscape:pagecheckerboard="0"
     inkscape:deskcolor="#d1d1d1"
     showguides="true"
     inkscape:zoom="0.86462091"
     inkscape:cx="469.56995"
     inkscape:cy="308.22757"
     inkscape:window-width="1920"
     inkscape:window-height="991"
     inkscape:window-x="-9"
     inkscape:window-y="-9"
     inkscape:window-maximized="1"
     inkscape:current-layer="g403" />
  <g
     inkscape:groupmode="layer"
     inkscape:label="Image"
     id="g1"
     transform="translate(-28.878125,-53.911393)">
    <g
       id="g403"
       transform="translate(-12.722339,279.89145)">
      <path
         style="fill:#91a763"
         d="m 112.32545,-64.036575 -0.61095,-0.98854 1.55193,0.59553 c 1.73242,0.66479 2.04939,1.38156 0.61096,1.38156 -0.51754,0 -1.21591,-0.44485 -1.55194,-0.98855 z m -26.745418,-24.71871 c 1.243912,-0.23919 3.043912,-0.23011 4,0.0202 0.956087,0.25029 -0.06166,0.446 -2.261659,0.4349 l -4,-0.0202 z m -5.949159,-0.97585 c 0.721875,-0.28887 1.584375,-0.25335 1.916666,0.0789 0.332292,0.33229 -0.258333,0.56864 -1.3125,0.52522 l -1.916666,-0.0789 z m 16.05231,-0.85603 c 1.850645,-0.80347 3.650645,-1.44491 4,-1.42542 1.301057,0.0726 -4.423687,2.89354 -5.86481,2.88998 -0.825,-0.002 0.01416,-0.66109 1.86481,-1.46456 z m -21.423681,-1.01603 -1.941129,-1.55516 2.5,1.19062 c 3.061032,1.45781 3.628339,1.91971 2.357796,1.91971 -0.536545,0 -1.849045,-0.69982 -2.916667,-1.55517 z m 8.558871,-0.44483 c -1.827966,-1.18132 -0.249086,-1.18132 2.5,0 l 2,0.85943 -1.5,0.055 c -0.825,0.0302 -2.175,-0.38124 -3,-0.9144 z m 8,-0.71407 c 0.825,-0.3059 2.4,-0.9702 3.5,-1.47622 l 2,-0.92004 -1.94113,1.55516 c -1.067621,0.85535 -2.642621,1.51964 -3.5,1.47622 l -1.55887,-0.0789 z m -13.558871,-1.8411 -1.941129,-1.55516 2.25,1.09035 c 1.2375,0.59969 2.25,1.29951 2.25,1.55516 0,0.76522 -0.518608,0.54424 -2.558871,-1.09035 z m -8.036142,-1.69483 -1.904987,-2.25 2.25,1.90499 c 1.2375,1.04774 2.25,2.06024 2.25,2.25 0,0.80025 -0.804795,0.20945 -2.595013,-1.90499 z m 28.821203,-0.32872 c 0.949405,-0.99123 1.94144,-1.58698 2.204517,-1.3239 0.26309,0.26308 -0.513699,1.07408 -1.726186,1.80223 l -2.204521,1.3239 z m -25.353746,-1.17128 -1.372444,-1.75 1.75,1.37244 c 0.9625,0.75485 1.75,1.54235 1.75,1.75 0,0.82304 -0.821186,0.29331 -2.127556,-1.37244 z m 76.625193,-2.13758 c 1.0987,-1.274445 3.3487,-2.952505 5,-3.729015 l 3.00236,-1.41184 -1.88397,1.26422 c -1.03618,0.69532 -3.28618,2.37338 -5,3.72902 l -3.11603,2.464805 z m 40.31486,-2.795525 c 0.72187,-0.28887 1.58437,-0.25335 1.91667,0.0789 0.33229,0.33229 -0.25834,0.56864 -1.3125,0.52522 l -1.91667,-0.0789 z m -54.65461,-2.31689 c 0,-1.375 0.22698,-1.9375 0.50439,-1.25 0.27741,0.6875 0.27741,1.8125 0,2.5 -0.27741,0.6875 -0.50439,0.125 -0.50439,-1.25 z m 45.84211,-0.58331 c -3.38031,-1.87567 -0.97361,-1.80523 2.63569,0.0772 1.57537,0.82161 2.18931,1.45249 1.36431,1.40195 -0.825,-0.0505 -2.625,-0.71613 -4,-1.4791 z m -17.5,-2.44153 c 1.92502,-0.8033 11.26869,-1.35335 10.41667,-0.61321 -0.22917,0.19907 -3.11667,0.60626 -6.41667,0.90487 l -6,0.54292 z m 12.3125,0.34173 c 0.72187,-0.28887 1.58437,-0.25335 1.91667,0.0789 0.33229,0.33229 -0.25834,0.56864 -1.3125,0.52522 l -1.91667,-0.0789 z m -126.846657,-6.06689 -5.46584,-5.75 5.75,5.46584 c 3.1625,3.00621 5.75,5.59371 5.75,5.75 0,0.74225 -0.956222,-0.12391 -6.03416,-5.46584 z m 56.637167,-0.0833 c -0.28327,-0.45834 0.12038,-0.83334 0.89699,-0.83334 0.77661,0 1.18026,0.375 0.897,0.83334 -0.28327,0.4583 -0.68692,0.8333 -0.897,0.8333 -0.21008,0 -0.61373,-0.375 -0.89699,-0.83333 z m -6.044137,-2.6985 c -1.067621,-0.80751 -1.460221,-1.4682 -0.872445,-1.4682 0.587777,0 1.628882,0.675 2.313572,1.5 1.55721,1.87632 1.06734,1.86551 -1.441127,-0.0318 z m -31.55887,0.13879 c 0,-0.21616 0.698372,-0.661 1.551937,-0.98855 l 1.551938,-0.59553 -0.610954,0.98854 c -0.587258,0.95021 -2.492921,1.40545 -2.492921,0.59554 z m 3,-3.05563 c 0,-1.09342 6.647033,-3.8482 9.970298,-4.13206 1.941336,-0.16583 2.629702,-0.0581 1.529702,0.23943 -1.1,0.29751 -3.111383,1.50851 -4.469739,2.6911 l -2.469739,2.15017 1.342183,-1.75 c 1.649701,-2.15095 0.885603,-2.20901 -2.952365,-0.22432 -1.622687,0.83912 -2.95034,1.30068 -2.95034,1.02568 z m 24.863112,-0.0216 c -0.258622,-0.25862 -2.921122,-1.1679 -5.916667,-2.02062 l -5.446445,-1.55039 3.505853,0.41812 c 3.534891,0.42159 11.42284,3.39003 9.410813,3.54154 -0.595833,0.0449 -1.294932,-0.13003 -1.553554,-0.38865 z m 4.568775,-1.63999 c -0.962189,-1.55685 0.21227,-2.18831 2.10257,-1.13045 l 1.68446,0.94268 -1.57743,0.60531 c -0.86759,0.33293 -1.86191,0.14504 -2.2096,-0.41754 z m 3.31811,-6.46176 c -3.738438,-2.02814 -3.51088,-2.87286 0.25,-0.92803 1.65,0.85325 3,1.7648 3,2.02568 0,0.6435 -0.10744,0.60721 -3.25,-1.09765 z m -22.118323,-0.9066 -1.868325,-1.41496 1.951659,0.14702 c 1.073412,0.0808 1.951658,0.7319 1.951658,1.44676 0,0.71486 -0.0375,1.28544 -0.08333,1.26795 -0.04583,-0.0175 -0.92408,-0.66854 -1.951659,-1.44677 z m 15.809455,-3.0766 -1.941129,-1.55516 2.25,1.09035 c 1.2375,0.59969 2.25,1.29951 2.25,1.55516 0,0.76522 -0.518608,0.54424 -2.558871,-1.09035 z m 100.558868,-0.44481 -1.5,-0.96937 1.19098,-0.0153 c 0.65504,-0.008 1.4691,0.43469 1.80902,0.98469 0.7673,1.24153 0.42112,1.24153 -1.5,0 z m -4.55887,-2.55517 -1.94113,-1.55516 2.25,1.09035 c 1.2375,0.59969 2.25,1.29951 2.25,1.55516 0,0.76522 -0.51861,0.54424 -2.55887,-1.09035 z m -62.44113,-12.64854 c -3.025,-2.81212 -4.15,-4.18281 -2.5,-3.04599 2.84696,1.96151 9.36611,8.30079 8.43709,8.20431 -0.2404,-0.025 -2.91209,-2.34621 -5.93709,-5.15832 z m 59.25085,2.05456 c -0.63204,-0.63204 -2.85954,-1.48029 -4.95,-1.885 l -3.80085,-0.73585 3.13921,-0.115 3.13922,-0.115 2.36078,1.96673 c 1.29844,1.0817 2.11329,1.9817 1.81079,2 -0.3025,0.0183 -1.06712,-0.48385 -1.69915,-1.11588 z m -95.250847,-0.22841 c 0,-0.20765 0.7875,-0.99515 1.75,-1.75 l 1.75,-1.37244 -1.372445,1.75 c -1.30637,1.66575 -2.127555,2.19548 -2.127555,1.37244 z m -8.427422,-4.71687 c 1.610082,-1.97694 3.129345,-3.42502 3.37614,-3.21795 0.246795,0.20706 -1.070545,1.82456 -2.927422,3.59443 l -3.37614,3.21795 z m 82.677419,2.4051 c 0.9625,-0.25152 2.5375,-0.25152 3.5,0 0.9625,0.25153 0.175,0.45733 -1.75,0.45733 -1.925,0 -2.7125,-0.2058 -1.75,-0.45733 z m 7.5625,-0.99378 c 0.72187,-0.28887 1.58437,-0.25335 1.91667,0.0789 0.33229,0.33229 -0.25834,0.56864 -1.3125,0.52522 l -1.91667,-0.0789 z m -78.812497,-0.74652 c 0,-0.275 0.9,-0.98167 2,-1.57037 1.099997,-0.5887 1.999997,-0.84537 1.999997,-0.57037 0,0.275 -0.9,0.98167 -1.999997,1.57037 -1.1,0.5887 -2,0.84537 -2,0.57037 z m 24.999997,-3.57037 -1.5,-0.96937 1.19098,-0.0153 c 0.65504,-0.008 1.4691,0.43469 1.80902,0.98469 0.7673,1.24153 0.42112,1.24153 -1.5,0 z m 7.8125,-0.68311 c 0.72187,-0.28887 1.58437,-0.25335 1.91667,0.0789 0.33229,0.3323 -0.25834,0.56864 -1.3125,0.52522 l -1.91667,-0.0789 z m -5.37137,-1.87206 -1.94113,-1.55516 2.5,1.19062 c 3.06103,1.45781 3.62834,1.91971 2.3578,1.91971 -0.53655,0 -1.84905,-0.69982 -2.91667,-1.55517 z m -28.168257,-1.44483 c 1.398424,-1.1 2.869797,-2 3.269717,-2 0.39992,0 -0.417035,0.9 -1.815458,2 -1.398423,1.1 -2.869796,2 -3.269717,2 -0.399921,0 0.417035,-0.9 1.815458,-2 z m -12.813989,-0.0665 c -0.362534,-0.58659 -0.444684,-1.281 -0.182555,-1.54313 0.262128,-0.26213 0.743066,0.21781 1.06875,1.06653 0.676184,1.76211 0.09985,2.07206 -0.886195,0.4766 z m 32.946106,-1.18347 -1.90499,-2.25 2.25,1.90499 c 2.11444,1.79022 2.70524,2.59501 1.90499,2.59501 -0.18976,0 -1.20226,-1.0125 -2.25,-2.25 z m 7.46745,-4 1.37245,-1.75 3.62755,0.16004 3.62756,0.16003 -3.49599,0.42167 c -1.92279,0.23192 -4.17279,0.9474 -5,1.58996 l -1.50401,1.1683 z m -37.993353,-1.02908 c 0.482499,-0.4825 2.169591,-0.71609 3.749093,-0.5191 l 2.871823,0.35818 -3.749094,0.51909 -3.749093,0.5191 z m 74.679783,-13.25275 c -1.06762,-0.80751 -1.46022,-1.4682 -0.87245,-1.4682 0.58778,0 1.62889,0.675 2.31358,1.5 1.5572,1.87632 1.06734,1.86551 -1.44113,-0.0318 z m -12.89351,-7.15435 c -2.65905,-0.81285 -4.64808,-1.66447 -4.42006,-1.89249 0.50426,-0.50426 10.7547,2.46695 10.7547,3.11738 0,0.62845 -0.73994,0.48537 -6.33464,-1.22489 z m -19.38519,-3.05013 c 2.6291,-0.20667 6.6791,-0.20418 9,0.006 2.32091,0.20973 0.16983,0.37883 -4.78017,0.37578 -4.95,-0.003 -6.84892,-0.17464 -4.21983,-0.38132 z m -11.01114,-0.95672 c 0.97297,-0.25354 2.32297,-0.23686 3,0.037 0.67703,0.27393 -0.11903,0.48137 -1.76903,0.46099 l -3,-0.0371 z m -7.96326,-3.87996 -2.80577,-2.57295 3.25,2.26101 c 1.7875,1.24356 3.25,2.40139 3.25,2.57295 0,0.78935 -1.10611,0.11236 -3.69423,-2.26101 z m -45.305767,-17.8046 c 0,-0.20766 0.7875,-0.99516 1.75,-1.75 l 1.75,-1.37244 -1.372445,1.75 c -1.30637,1.66574 -2.127555,2.19547 -2.127555,1.37244 z"
         id="path405"
         sodipodi:nodetypes="scsssssscsssccssscsscsssssccsscscscccscsssscsssssscsscssssscsscsssccssssscssccssscsssccsscssscsssccsssssscsssssscssssscscssscsssssscccssscscssscccsscscssssscssscccssssscssssscsssssscccsssssscccsscscccsscssssssssssssscsssccccssccsscccsssssssssccccccccccscssssscss" />
      <path
         style="fill:#a80306"
         d="m 75.07581,-65.226595 -5.184418,-1.93396 -4.28651,-4.47296 c -2.35758,-2.46013 -5.520337,-6.59731 -7.028349,-9.19374 l -2.741839,-4.72077 -0.0082,-10.75989 -0.0082,-10.759875 -7,-7.54951 -7,-7.54951 v -3.49779 c 0,-1.92378 0.520235,-5.56382 1.156079,-8.08899 l 1.156079,-4.5912 -1.264994,-7.78953 -1.264994,-7.78952 3.229924,-5.64532 3.229924,-5.64532 -0.67598,-6.86013 -0.675979,-6.86013 1.664612,-3.21901 1.664613,-3.219 -1.221773,-4.08764 c -0.671975,-2.2482 -2.296314,-6.10905 -3.609642,-8.57968 -1.313328,-2.47062 -2.387869,-5.05812 -2.387869,-5.75 v -1.25795 h 8.04966 8.04966 l 2.765336,-1.43002 c 1.520935,-0.7865 4.536088,-3.55259 6.70034,-6.14686 6.686641,-8.0152 10.544453,-11.3591 14.312317,-12.4057 7.616654,-2.11568 11.992675,-0.76774 15.489201,4.77112 l 2.440642,3.86623 1.58498,8.40352 1.58497,8.40351 2.88135,4.0191 c 1.58474,2.2105 4.70533,5.04625 6.93464,6.30165 l 4.05329,2.28256 11.8268,0.53453 11.82681,0.53454 7.30298,2.13243 7.30297,2.13244 3.79883,3.55048 c 2.08935,1.95276 4.76551,5.26369 5.94702,7.35763 l 2.1482,3.80716 v 9.7665 9.76651 l 9.32231,-0.0551 9.32231,-0.0551 2.67769,1.75449 2.67769,1.75449 v 4.45126 4.45127 l 3.25,1.63364 c 1.7875,0.8985 4.02749,2.59756 4.97776,3.77568 l 1.72777,2.14204 0.0222,4.31462 0.0222,4.31462 -2.12315,4.93538 c -1.16772,2.71446 -2.4207,4.93538 -2.78439,4.93538 -0.36368,0 -1.45871,1.35 -2.43339,3 l -1.77214,3 h -1.99177 c -1.09548,0 -3.7534,-0.85113 -5.9065,-1.89139 -5.71903,-2.76314 -13.59211,-4.42514 -18.09884,-3.82066 -5.15728,0.69174 -13.46663,5.02822 -18.03114,9.410075 l -3.64132,3.49562 -2.02613,6.65317 c -1.11437,3.65925 -2.3207,8.82303 -2.68073,11.47506 l -0.6546,4.82188 -6.26523,-0.67095 -6.26522,-0.67095 -3.61111,4.21876 c -1.98611,2.32033 -4.52287,4.85739 -5.63724,5.63793 l -2.02614,1.41916 -3.27548,-1.65081 c -1.80151,-0.90794 -4.712,-3.01352 -6.46775,-4.67906 l -3.19226,-3.02826 -3.460271,0.56152 c -1.903148,0.30884 -5.191627,1.70443 -7.307732,3.10132 -2.116105,1.39689 -5.660546,3.17726 -7.876536,3.95638 l -4.029072,1.41659 z m 22.581051,-25.23791 c 3.236629,-1.67372 5.393459,-4.04305 7.540919,-8.28386 l 1.62059,-3.200335 v -5.65464 -5.65463 l -2.98421,-4.42176 -2.9842,-4.42175 1.85386,0.99215 c 2.4485,1.3104 4.97921,6.79476 5.75832,12.47897 0.79916,5.83051 1.9386,5.853 2.808,0.0554 l 0.67885,-4.52692 -1.11299,-5.36124 -1.11299,-5.36125 -1.91454,-1.73264 c -1.053,-0.95295 -4.74405,-3.37463 -8.202323,-5.38151 l -6.287774,-3.64888 -0.306068,-3.65823 -0.306067,-3.65823 2.306067,-2.76293 c 1.268337,-1.5196 3.215683,-3.68955 4.327435,-4.82209 2.34368,-2.3875 6.76937,-9.15252 7.88913,-12.05916 l 0.77048,-2 1.65951,4 c 0.91273,2.2 3.34701,7.33688 5.40951,11.41529 l 3.75,7.41529 v 5.59131 c 0,3.07522 -0.46712,7.16334 -1.03804,9.08471 -0.57091,1.92137 -1.05305,7.42291 -1.07142,12.22564 l -0.0334,8.73223 2.18788,6.267765 c 1.20334,3.44727 2.58548,6.69526 3.07143,7.21776 l 0.88354,0.95 v -12.618205 c 0,-12.4451 0.42908,-15.78179 2.02944,-15.78179 1.50532,0 5.96792,18.12774 5.96974,24.249995 0.001,3.92233 1.62866,3.39773 3.10234,-1 1.80196,-5.377325 1.41504,-15.317755 -1.07502,-27.619095 -1.18955,-5.87653 -2.01127,-11.46002 -1.82607,-12.40775 l 0.33674,-1.72315 2.72248,4.85997 c 1.49737,2.67299 3.19385,6.61049 3.76996,8.75 0.57611,2.13952 1.48013,3.89003 2.00893,3.89003 h 0.96146 v -5.3185 c 0,-11.38687 -4.33269,-19.45311 -13.90512,-25.8874 -2.52718,-1.6987 -6.6376,-5.18352 -9.13425,-7.74404 l -4.53935,-4.65549 -2.46064,-5.68022 c -1.35335,-3.12412 -2.75879,-5.6879 -3.12321,-5.69728 -0.36442,-0.009 -1.87707,3.16122 -3.36145,7.0458 l -2.69887,7.06288 -2.628335,2.43712 c -3.486697,3.23305 -4.148768,3.08051 -4.148768,-0.95588 v -3.39301 l -1.581788,-0.60699 c -0.869987,-0.33383 -2.658431,-0.60697 -3.974324,-0.60697 h -2.392532 l -1.643157,3.17751 -1.643157,3.17752 1.808607,1.32248 c 0.994733,0.72737 2.172598,1.32249 2.617476,1.32249 1.553814,0 0.791832,2.70544 -1.293508,4.59265 -1.156309,1.04645 -2.789083,3.23057 -3.628387,4.8536 l -1.526007,2.95097 0.565552,6.74589 0.565551,6.7459 -1.359846,-0.52183 c -1.704268,-0.65398 -2.176878,-1.88855 -3.058449,-7.98933 -0.38767,-2.68282 -0.992837,-5.41994 -1.344815,-6.08249 l -0.63996,-1.20465 -1.311456,0.81053 c -0.721301,0.44578 -1.555635,2.63101 -1.854075,4.85605 l -0.542619,4.04552 2.643474,5.77411 2.643474,5.77411 -1.275029,0.80917 c -0.701266,0.44505 -1.620479,0.81607 -2.042696,0.82449 -0.422216,0.008 -2.318426,1.61217 -4.213799,3.56388 l -3.446133,3.54857 -0.648743,3.45811 c -0.356809,1.90195 -0.337132,5.53608 0.04373,8.07584 l 0.692473,4.617725 3.709416,3.97669 3.709417,3.97669 4.960654,1.3864 4.960654,1.3864 5.336127,-0.50636 c 2.934871,-0.2785 6.535933,-1.1268 8.002361,-1.88512 z m -15.338488,-2.27495 c -1.1,-0.23049 -3.783201,-1.64203 -5.962668,-3.13676 l -3.962668,-2.7177 -1.215082,-4.196775 -1.215083,-4.19679 0.969776,-3.51224 c 0.533377,-1.93173 2.852678,-5.58118 5.154003,-8.10989 l 4.184228,-4.59764 4.357124,0.65339 c 6.381305,0.95694 11.832262,3.09285 14.715133,5.76599 l 2.538304,2.35366 0.59024,3.63721 c 0.83366,5.13723 -0.37161,10.39794 -2.949362,12.873225 -4.640456,4.45601 -11.218892,6.43839 -17.203945,5.18432 z m 50.499997,-65.808565 v -5.5 h -3.3 c -4.05032,0 -5.7,1.51895 -5.7,5.24827 v 2.84828 l 3.25,1.41258 c 1.7875,0.77692 3.8125,1.4302 4.5,1.45173 l 1.25,0.0391 z"
         id="path404" />
    </g>
  </g>
</svg>
