<?xml version="1.0" encoding="UTF-8" standalone="no"?>
<!-- Created with Inkscape (http://www.inkscape.org/) -->

<svg
   version="1.1"
   id="svg1"
   width="699.65198"
   height="193.347"
   viewBox="0 0 699.65198 193.347"
   sodipodi:docname="revibologo.svg"
   inkscape:version="1.4.2 (f4327f4, 2025-05-13)"
   xmlns:inkscape="http://www.inkscape.org/namespaces/inkscape"
   xmlns:sodipodi="http://sodipodi.sourceforge.net/DTD/sodipodi-0.dtd"
   xmlns="http://www.w3.org/2000/svg"
   xmlns:svg="http://www.w3.org/2000/svg">
  <defs
     id="defs1" />
  <sodipodi:namedview
     id="namedview1"
     pagecolor="#ffffff"
     bordercolor="#000000"
     borderopacity="0.25"
     inkscape:showpageshadow="2"
     inkscape:pageopacity="0.0"
     inkscape:pagecheckerboard="0"
     inkscape:deskcolor="#d1d1d1"
     showguides="true"
     inkscape:zoom="0.86462091"
     inkscape:cx="393.23592"
     inkscape:cy="325.57621"
     inkscape:window-width="1920"
     inkscape:window-height="991"
     inkscape:window-x="-9"
     inkscape:window-y="-9"
     inkscape:window-maximized="1"
     inkscape:current-layer="g1" />
  <g
     inkscape:groupmode="layer"
     inkscape:label="Image"
     id="g1"
     transform="translate(-21.938668,-36.05543)">
    <g
       id="g403"
       transform="translate(-12.722339,279.89145)">
      <path
         style="fill:#fbbe06"
         d="m 218.20738,-92.227605 c -0.40096,-0.64877 -0.68933,-21.858375 -0.64082,-47.132475 l 0.0882,-45.9529 1.43377,-1.43376 1.43376,-1.43377 12.89804,-0.55593 12.89805,-0.55593 9.34681,1.15439 9.34682,1.15438 5.15318,2.6107 c 6.33389,3.20886 12.18784,9.24816 13.02587,13.43829 0.96335,4.81676 0.74459,16.44794 -0.36421,19.3643 -1.48259,3.89952 -6.03296,9.2478 -10.25847,12.05732 -2.0625,1.37134 -3.75,2.97373 -3.75,3.56086 0,0.58713 1.52939,2.94325 3.39865,5.23581 3.40791,4.17967 5.22567,7.43374 9.86967,17.6683 3.98727,8.78725 4.71394,11.19466 4.98048,16.499995 l 0.2512,5 -6.97908,0.30091 c -3.8385,0.1655 -7.8885,0.0706 -9,-0.21081 l -2.02092,-0.51173 -1.40386,-3.28918 c -0.77212,-1.80906 -2.17436,-5.089185 -3.11608,-7.289185 -0.94173,-2.2 -2.97826,-7.10842 -4.52564,-10.9076 -1.54738,-3.79918 -4.19515,-8.69036 -5.88392,-10.86929 l -3.0705,-3.9617 -4,-1.36565 c -2.2,-0.75111 -5.4625,-1.37242 -7.25,-1.3807 l -3.25,-0.0151 v 19.39301 19.393005 l -1.58179,0.60699 c -0.86999,0.33389 -4.89343,0.60703 -8.94099,0.60703 h -7.3592 z m 38.71622,-55.151485 c 4.60667,-2.24814 6.32995,-5.53303 6.29718,-12.00359 l -0.0262,-5.16534 -1.611,-3.05121 -1.61101,-3.05122 -6.32711,-1.19542 c -3.47992,-0.65748 -8.35212,-0.99456 -10.82712,-0.74906 -2.475,0.24549 -4.8375,0.46898 -5.25,0.49663 -0.4125,0.0277 -0.75,5.82528 -0.75,12.88361 0,7.05834 0.3375,13.17419 0.75,13.5908 0.4125,0.4166 4.125,0.58798 8.25,0.38084 l 7.5,-0.37663 z m 50.14477,55.299905 -2.25,-0.90439 v -46.929775 -46.92979 l 13.68927,-0.73319 c 14.48978,-0.77606 41.26087,0.13743 42.61456,1.45411 0.44211,0.43003 0.492,3.13258 0.11087,6.00568 l -0.69296,5.22382 -2.42597,0.92235 c -1.33428,0.50729 -9.59668,0.92235 -18.36087,0.92235 h -15.9349 v 11.39301 11.39301 l 1.58179,0.60699 c 0.86998,0.33385 6.15748,0.64035 11.75,0.68111 5.59251,0.0408 12.19321,0.37827 14.66821,0.75 l 4.5,0.67588 0.29772,6.25 0.29771,6.25 -10.79771,0.0964 c -5.93875,0.053 -13.27272,0.61553 -16.29772,1.25 l -5.5,1.15357 -0.27988,12.75 -0.27988,12.75 h 18.40744 18.40743 l 1.17487,1.41563 1.17486,1.41562 -0.30242,5.821345 -0.30242,5.82135 -4,0.7054 c -5.83314,1.02866 -48.60417,0.85298 -51.25,-0.21051 z"
         id="path406" />
      <path
         style="fill:#91a763"
         d="m 221.81837,-61.048025 c 0,-2.93333 0.31917,-5.01416 0.70926,-4.62407 0.71452,0.71452 0.46133,8.76552 -0.30004,9.54074 -0.22507,0.22916 -0.40922,-1.98334 -0.40922,-4.91667 z m 12,-7.12383 v -12.12383 l 5.53519,0.45902 c 3.04435,0.25246 6.08185,1.01121 6.75,1.68611 l 1.21481,1.22709 -1.5,0.86925 c -0.825,0.47809 -2.35793,1.50803 -3.4065,2.28874 l -1.9065,1.41949 3.1565,1.86459 c 1.73607,1.02552 3.15365,2.10506 3.15018,2.39898 -0.003,0.29391 -1.35348,1.30096 -3,2.23788 -3.82837,2.17845 -3.82568,3.79651 0.006,3.79651 h 3 v 3 3 h -6.5 -6.5 z m 168.27236,8.12383 c 0,-2.475 0.19502,-3.4875 0.43337,-2.25 0.23835,1.2375 0.23835,3.2625 0,4.5 -0.23835,1.2375 -0.43337,0.225 -0.43337,-2.25 z m 31.54014,3.31689 c 0.72187,-0.28887 1.58437,-0.25335 1.91667,0.0789 0.33229,0.33229 -0.25834,0.56864 -1.3125,0.52522 l -1.91667,-0.0789 z m 12.40253,-11.06689 -0.21503,-12.25 3.75,0.16004 3.75,0.16003 -3.21879,0.401 -3.2188,0.40099 -0.31617,11.68897 -0.31618,11.68897 z m 53.03715,8.25 0.0202,-4 0.4349,2.26166 c 0.23919,1.24391 0.23011,3.04391 -0.0202,4 -0.25029,0.95609 -0.446,-0.0617 -0.4349,-2.26166 z m 11.03383,-1 c 0.008,-2.75 0.20172,-3.75631 0.43157,-2.23625 0.22985,1.52006 0.22371,3.77006 -0.0137,5 -0.23736,1.22994 -0.42542,-0.0137 -0.41792,-2.76375 z m 28.27828,3.20687 c 0.37553,-0.98622 0.93469,-1.54122 1.24258,-1.23333 0.30789,0.30789 6.3e-4,1.11479 -0.68278,1.79313 l -1.24258,1.23333 z m 119.43571,-10.70687 v -12 h 3 3 v 8.5 8.5 h 1 c 1.53371,0 5,3.81292 5,5.5 v 1.5 h -6 -6 z m 14,1.93426 c 0,-5.53616 0.46583,-10.93616 1.03518,-12 l 1.03519,-1.93426 h 2.46481 2.46482 v 12 12 h -3.5 -3.5 z m -331.92105,7.48241 0.0789,-1.91667 0.52522,1.3125 c 0.28887,0.72187 0.25335,1.58437 -0.0789,1.91667 -0.3323,0.33229 -0.56864,-0.25834 -0.52522,-1.3125 z m 362.19341,-2.41667 c 0,-2.475 0.19502,-3.4875 0.43337,-2.25 0.23835,1.2375 0.23835,3.2625 0,4.5 -0.23835,1.2375 -0.43337,0.225 -0.43337,-2.25 z m -182.11447,0 c 0,-1.375 0.22698,-1.9375 0.50439,-1.25 0.27741,0.6875 0.27741,1.8125 0,2.5 -0.27741,0.6875 -0.50439,0.125 -0.50439,-1.25 z m -35.65081,-0.98855 -0.61096,-0.98854 1.55194,0.59553 c 1.73242,0.66479 2.04939,1.38156 0.61096,1.38156 -0.51754,0 -1.21592,-0.44485 -1.55194,-0.98855 z m 65.30542,0.30544 c 0.72187,-0.28887 1.58437,-0.25335 1.91667,0.0789 0.33229,0.33229 -0.25834,0.56864 -1.3125,0.52522 l -1.91667,-0.0789 z m 157.50757,-6.31689 c 0,-3.575 0.1815,-5.0375 0.40332,-3.25 0.22183,1.7875 0.22183,4.7125 0,6.5 -0.22182,1.7875 -0.40332,0.325 -0.40332,-3.25 z m 10.67993,1.96944 c 0,-4.29925 1.3978,-7.96944 3.03518,-7.96944 h 0.96482 v 4.96482 4.96481 l -2,1.07037 -2,1.07037 z m -605.49292,2.04201 -0.61095,-0.98854 1.55193,0.59553 c 1.73242,0.66479 2.04939,1.38156 0.61096,1.38156 -0.51754,0 -1.21591,-0.44485 -1.55194,-0.98855 z m 373.49292,-1.38901 c 0,-0.20765 0.7875,-0.99515 1.75,-1.75 l 1.75,-1.37244 -1.37245,1.75 c -1.30637,1.66575 -2.12755,2.19548 -2.12755,1.37244 z m 157.15789,-1.62244 c 0,-1.375 0.22698,-1.9375 0.50439,-1.25 0.27741,0.6875 0.27741,1.8125 0,2.5 -0.27741,0.6875 -0.50439,0.125 -0.50439,-1.25 z m -200,-1 c 0,-1.375 0.22698,-1.9375 0.50439,-1.25 0.27741,0.6875 0.27741,1.8125 0,2.5 -0.27741,0.6875 -0.50439,0.125 -0.50439,-1.25 z m -155.07894,-0.58333 0.0789,-1.91667 0.52522,1.3125 c 0.28887,0.72187 0.25335,1.58437 -0.0789,1.91667 -0.3323,0.33229 -0.56864,-0.25834 -0.52522,-1.3125 z m 5,-1 0.0789,-1.91667 0.52522,1.3125 c 0.28887,0.72187 0.25335,1.58437 -0.0789,1.91667 -0.3323,0.33229 -0.56864,-0.25834 -0.52522,-1.3125 z m 311.92105,-0.0697 -2.5,-1.3175 1.5,5.7e-4 c 1.72415,6.6e-4 4.6743,1.6706 3.97104,2.24782 -0.25907,0.21263 -1.59604,-0.20627 -2.97104,-0.93089 z m -149,-0.34698 -1.5,-0.96937 1.19098,-0.0153 c 0.65504,-0.008 1.4691,0.43469 1.80902,0.98469 0.7673,1.24153 0.42112,1.24153 -1.5,0 z m 58.18498,-4.25 -0.18498,-5.75 4.75,0.17471 4.75,0.1747 -4.19965,0.38033 -4.19965,0.38034 -0.36537,5.19496 -0.36537,5.19496 z m -111.89897,-0.24999 c 0.008,-2.75 0.20172,-3.75631 0.43157,-2.23625 0.22985,1.52006 0.22371,3.77006 -0.0137,5 -0.23736,1.22994 -0.42542,-0.0137 -0.41792,-2.76375 z m 102.96617,-1 0.0202,-4 0.4349,2.26166 c 0.23919,1.24391 0.23011,3.04391 -0.0202,4 -0.25029,0.95609 -0.446,-0.0617 -0.4349,-2.26166 z m 43.74782,2.5 c 0,-0.55 0.47656,-1 1.05902,-1 0.58246,0 0.7809,0.45 0.44098,1 -0.33992,0.55 -0.81648,1 -1.05902,1 -0.24254,0 -0.44098,-0.45 -0.44098,-1 z m -293.1875,-1.68311 c 0.72187,-0.28887 1.58437,-0.25335 1.91667,0.0789 0.33229,0.33229 -0.25834,0.56864 -1.3125,0.52522 l -1.91667,-0.0789 z m 162.1875,-2.81689 c 0,-1.925 0.35964,-3.5 0.7992,-3.5 0.43956,0 0.61532,1.575 0.39059,3.5 -0.22473,1.925 -0.58437,3.5 -0.7992,3.5 -0.21482,0 -0.39059,-1.575 -0.39059,-3.5 z m 36,3.10699 c 0,-0.21616 0.69837,-0.661 1.55194,-0.98855 l 1.55193,-0.59553 -0.61095,0.98854 c -0.58726,0.95021 -2.49292,1.40545 -2.49292,0.59554 z m 35.56429,-0.90012 c 0.37553,-0.98622 0.93469,-1.54122 1.24258,-1.23333 0.30789,0.30789 6.3e-4,1.11479 -0.68278,1.79313 l -1.24258,1.23333 z m 20.51466,-0.2902 0.0789,-1.91667 0.52522,1.3125 c 0.28887,0.72187 0.25335,1.58437 -0.0789,1.91667 -0.3323,0.33229 -0.56864,-0.25834 -0.52522,-1.3125 z m 81.17323,0.002 c 0.9637,-1.14463 1.4512,-2.38213 1.08333,-2.75 -0.36786,-0.36769 -0.14384,-0.66867 0.49782,-0.66867 1.83014,0 1.37368,1.51475 -1.08333,3.59501 l -2.25,1.90499 z m 54.01685,0.88816 c 0.97297,-0.25354 2.32297,-0.23687 3,0.0371 0.67703,0.27393 -0.11903,0.48137 -1.76903,0.46099 l -3,-0.037 z m -25.19008,-1.43457 c -0.0434,-0.89515 0.70855,-2.24515 1.67105,-3 l 1.75,-1.37244 -1.11573,1.5 c -0.61365,0.825 -1.36562,2.175 -1.67105,3 l -0.55533,1.5 z m -395.57895,-1.87226 c 0.99549,-1.1 2.03497,-2 2.30997,-2 0.275,0 -0.31448,0.9 -1.30997,2 -0.99549,1.1 -2.03498,2 -2.30998,2 -0.275,0 0.31449,-0.9 1.30998,-2 z m 65.05887,0.4682 c -1.06762,-0.80751 -1.46022,-1.4682 -0.87245,-1.4682 0.58778,0 1.62889,0.675 2.31358,1.5 1.5572,1.87632 1.06734,1.86551 -1.44113,-0.0318 z m 149.31357,-0.2182 -1.37244,-1.75 1.75,1.37244 c 1.66575,1.30637 2.19548,2.12756 1.37244,2.12756 -0.20765,0 -0.99515,-0.7875 -1.75,-1.75 z m 115.12756,1.37244 c 0,-0.20765 0.7875,-0.99515 1.75,-1.75 l 1.75,-1.37244 -1.37245,1.75 c -1.30637,1.66575 -2.12755,2.19548 -2.12755,1.37244 z m 77.40499,-1.87244 -1.90499,-2.25 2.25,1.90499 c 2.11444,1.79022 2.70524,2.59501 1.90499,2.59501 -0.18976,0 -1.20226,-1.0125 -2.25,-2.25 z m -334.15295,0.25 0.4043,-1.5 4.92183,-0.10766 4.92183,-0.10766 -4.48357,0.42657 c -2.46597,0.23461 -4.86273,0.95806 -5.32613,1.60766 l -0.84256,1.18109 z m 199.74796,-1.12099 -3.5,-1.8759 1.63921,-0.002 c 0.90157,-8.5e-4 2.70157,0.88348 4,1.96518 2.86031,2.38287 2.43804,2.36556 -2.13921,-0.0877 z m 76.981,0.5981 -1.26389,-1.52289 1.64145,0.62988 c 0.90279,0.34643 1.64144,1.03173 1.64144,1.52289 0,1.28596 -0.57887,1.10536 -2.019,-0.62988 z m -356.981,0.12988 c 0,-0.21616 0.69837,-0.661 1.55194,-0.98855 l 1.55193,-0.59553 -0.61095,0.98854 c -0.58726,0.95021 -2.49292,1.40545 -2.49292,0.59554 z m 43,-0.60699 -1.5,-0.96937 1.19098,-0.0153 c 0.65504,-0.008 1.4691,0.43469 1.80902,0.98469 0.7673,1.24153 0.42112,1.24153 -1.5,0 z m 63.5,0 -2,-0.85943 1.69098,-0.0703 c 0.93004,-0.0387 1.9691,0.37971 2.30902,0.92971 0.71066,1.14988 0.67591,1.14988 -2,0 z m 98.5,0 -1.5,-0.96937 1.19098,-0.0153 c 0.65504,-0.008 1.4691,0.43469 1.80902,0.98469 0.7673,1.24153 0.42112,1.24153 -1.5,0 z m 280,-0.0936 c 0,-0.49851 0.9,-0.90638 2,-0.90638 1.1,0 2,0.17252 2,0.38337 0,0.21085 -0.9,0.61872 -2,0.90638 -1.1,0.28766 -2,0.11514 -2,-0.38337 z m -449.23834,-0.61364 c 1.24391,-0.23919 3.04391,-0.23011 4,0.0202 0.95609,0.25029 -0.0617,0.446 -2.26166,0.4349 l -4,-0.0202 z m 27.50209,-0.0103 c 1.52006,-0.22986 3.77006,-0.22371 5,0.0136 1.22994,0.23736 -0.0137,0.42542 -2.76375,0.41792 -2.75,-0.008 -3.75631,-0.20172 -2.23625,-0.43157 z m 60.48625,0.0553 c 0.6875,-0.27741 1.8125,-0.27741 2.5,0 0.6875,0.27741 0.125,0.50439 -1.25,0.50439 -1.375,0 -1.9375,-0.22698 -1.25,-0.50439 z m 13,0 c 0.6875,-0.27741 1.8125,-0.27741 2.5,0 0.6875,0.27741 0.125,0.50439 -1.25,0.50439 -1.375,0 -1.9375,-0.22698 -1.25,-0.50439 z m 20,0 c 0.6875,-0.27741 1.8125,-0.27741 2.5,0 0.6875,0.27741 0.125,0.50439 -1.25,0.50439 -1.375,0 -1.9375,-0.22698 -1.25,-0.50439 z m 24.0625,-0.0208 c 0.72187,-0.28887 1.58437,-0.25335 1.91667,0.0789 0.33229,0.33229 -0.25834,0.56864 -1.3125,0.52522 l -1.91667,-0.0789 z m 31.4375,-0.0331 c 1.5125,-0.22913 3.9875,-0.22913 5.5,0 1.5125,0.22912 0.275,0.41659 -2.75,0.41659 -3.025,0 -4.2625,-0.18747 -2.75,-0.41659 z m 35.5625,0.0331 c 0.72187,-0.28887 1.58437,-0.25335 1.91667,0.0789 0.33229,0.33229 -0.25834,0.56864 -1.3125,0.52522 l -1.91667,-0.0789 z m 18.4375,-0.0331 c 1.5125,-0.22913 3.9875,-0.22913 5.5,0 1.5125,0.22912 0.275,0.41659 -2.75,0.41659 -3.025,0 -4.2625,-0.18747 -2.75,-0.41659 z m 53.01903,0.0233 c 0.97297,-0.25354 2.32297,-0.23687 3,0.0371 0.67703,0.27393 -0.11903,0.48137 -1.76903,0.46099 l -3,-0.037 z m 9.99472,-0.0246 c 1.52006,-0.22986 3.77006,-0.22371 5,0.0136 1.22994,0.23736 -0.0137,0.42542 -2.76375,0.41792 -2.75,-0.008 -3.75631,-0.20172 -2.23625,-0.43157 z m 12.73625,-0.3138 c 0,-0.53274 0.675,-0.96862 1.5,-0.96862 0.825,0 1.5,0.17686 1.5,0.39301 0,0.21616 -0.675,0.65203 -1.5,0.96862 -0.825,0.31658 -1.5,0.13972 -1.5,-0.39301 z m 24.26375,0.3138 c 1.52006,-0.22986 3.77006,-0.22371 5,0.0136 1.22994,0.23736 -0.0137,0.42542 -2.76375,0.41792 -2.75,-0.008 -3.75631,-0.20172 -2.23625,-0.43157 z m 15.50416,-0.007 c 1.79735,-0.22256 4.49735,-0.21797 6,0.0102 1.50265,0.22818 0.0321,0.41027 -3.26791,0.40466 -3.3,-0.006 -4.52944,-0.1923 -2.73209,-0.41486 z m 25.73209,-0.27556 c -0.33992,-0.55 -0.14148,-1 0.44098,-1 0.58246,0 1.05902,0.45 1.05902,1 0,0.55 -0.19844,1 -0.44098,1 -0.24254,0 -0.7191,-0.45 -1.05902,-1 z m 70.25,0.33772 c 0.6875,-0.27741 1.8125,-0.27741 2.5,0 0.6875,0.27741 0.125,0.50439 -1.25,0.50439 -1.375,0 -1.9375,-0.22698 -1.25,-0.50439 z m 26.0625,-0.0208 c 0.72187,-0.28887 1.58437,-0.25335 1.91667,0.0789 0.33229,0.33229 -0.25834,0.56864 -1.3125,0.52522 l -1.91667,-0.0789 z m -87.62982,-5.7739 c -2.92453,-0.70781 -8.25922,-2.80704 -11.85487,-4.66496 l -6.53754,-3.37806 -5.37889,-5.34246 c -10.5396,-10.468185 -15.36568,-21.971035 -15.3966,-36.697435 -0.0265,-12.61093 4.3206,-24.09653 12.6404,-33.39771 2.28534,-2.55493 5.77284,-5.51649 7.75,-6.58126 1.97715,-1.06477 3.59482,-2.21699 3.59482,-2.5605 0,-0.3435 3.15,-2.07648 7,-3.85107 l 7,-3.22651 v -10.42152 c 0,-5.73185 -0.34049,-10.42153 -0.75665,-10.42153 -0.41616,0 -2.84569,-1.9125 -5.39896,-4.25 l -4.64231,-4.25 -1.18544,-3.77074 -1.18543,-3.77073 0.67815,-4.01397 c 1.23102,-7.2863 9.34057,-13.94456 16.98404,-13.94456 h 3.57309 l 5.03975,2.55383 5.03975,2.55384 1.90504,4.19616 c 3.72324,8.20103 2.02286,14.82045 -5.51042,21.4515 l -4.73314,4.16628 0.71518,9.53919 0.71519,9.5392 h 9.88108 9.88108 v 5 5 l -5.25,0.0178 c -2.8875,0.01 -9.27512,0.44113 -14.1947,0.95857 l -8.9447,0.94081 -6.5553,3.19909 -6.5553,3.1991 -6.03959,6.2351 -6.03959,6.23509 -2.82618,8.11863 -2.82618,8.11863 0.43329,6.23861 0.43328,6.2386 2.56686,6.25152 c 3.4705,8.45233 8.11954,14.25095 15.29811,19.0809 l 6,4.036975 7.73162,2.0653 c 9.68695,2.58762 13.41394,2.58794 22.78848,0.002 l 7.4799,-2.06334 5.35713,-3.676655 c 4.56495,-3.13298 7.60676,-6.10406 12.07123,-11.79054 1.88607,-2.40232 3.93089,-7.21484 5.58986,-13.15586 l 1.74519,-6.24975 -0.63538,-3.75025 c -0.34946,-2.06264 -0.90528,-5.18192 -1.23515,-6.93173 l -0.59976,-3.18147 1.04087,-1.31853 c 3.43958,-4.35714 9.53992,-10.8186 10.21391,-10.8186 0.43626,0 1.11116,1.44773 1.4998,3.21718 0.38863,1.76944 1.07034,3.90694 1.51489,4.75 0.77336,1.46659 7.56425,24.61516 9.9839,34.03282 0.63589,2.475 1.32588,4.77885 1.5333,5.11966 0.34877,0.57305 3.09984,0.17059 11.02498,-1.61287 l 3.10478,-0.6987 1.54116,3.84596 c 0.84764,2.11527 1.35585,4.15203 1.12936,4.52612 -0.5212,0.86089 -14.65412,5.434775 -19.61951,6.349535 l -3.73944,0.68891 -0.41682,-1.35931 c -0.22925,-0.74762 -1.87556,-5.952195 -3.65846,-11.565725 l -3.24165,-10.20642 -1.6021,2.93892 c -5.49437,10.07902 -9.0344,15.09252 -13.99366,19.818285 -6.36435,6.06469 -16.1004,11.37084 -23.90765,13.02968 -6.90711,1.46758 -21.28857,1.29765 -28.0181,-0.33106 z m -547.421018,-3.25028 c 1.243912,-0.23919 3.043912,-0.23011 4,0.0202 0.956087,0.25029 -0.06166,0.446 -2.261659,0.4349 l -4,-0.0202 z m -5.949159,-0.97585 c 0.721875,-0.28887 1.584375,-0.25335 1.916666,0.0789 0.332292,0.33229 -0.258333,0.56864 -1.3125,0.52522 l -1.916666,-0.0789 z m 16.05231,-0.85603 c 1.850645,-0.80347 3.650645,-1.44491 4,-1.42542 1.301057,0.0726 -4.423687,2.89354 -5.86481,2.88998 -0.825,-0.002 0.01416,-0.66109 1.86481,-1.46456 z m -21.423681,-1.01603 -1.941129,-1.55516 2.5,1.19062 c 3.061032,1.45781 3.628339,1.91971 2.357796,1.91971 -0.536545,0 -1.849045,-0.69982 -2.916667,-1.55517 z m 331.357428,0.4116 -3.70145,-1.03214 -1.16664,-3.66215 c -0.64166,-2.01418 -1.74862,-5.012135 -2.45993,-6.662135 -0.71131,-1.65 -2.26561,-6.15 -3.45401,-10 -1.1884,-3.85 -2.54584,-7.9 -3.01653,-9 -0.4707,-1.1 -1.8207,-5.15 -3,-9 -1.17931,-3.85 -2.5335,-7.9 -3.00932,-9 -1.91804,-4.43413 -13.78964,-41.24562 -14.38849,-44.61589 l -0.6425,-3.61589 3.77016,-0.62311 c 2.07358,-0.3427 5.92914,-0.62806 8.5679,-0.63411 l 4.79775,-0.011 2.28191,2.46222 2.28192,2.46223 2.7518,8.78778 c 7.09392,22.65414 8.85768,28.37358 11.19043,36.28777 1.37797,4.675 3.10242,9.85 3.83211,11.5 0.72969,1.65 2.11093,5.475 3.06944,8.5 0.9585,3.025 2.04671,5.8368 2.41825,6.24844 0.37154,0.41165 2.5944,-5.43835 4.93969,-13 5.12701,-16.53042 8.3985,-26.94418 14.60149,-46.47928 l 4.67749,-14.73083 4.02451,-1.20578 4.02451,-1.20577 5.54957,1.16403 c 3.05226,0.64022 5.66573,1.2867 5.80771,1.43661 0.21312,0.22503 -10.92459,33.81436 -12.8564,38.77258 -0.32143,0.825 -4.23113,12.525 -8.68822,26 -9.3548,28.282115 -9.9833,29.876775 -12.00102,30.449275 -0.82538,0.23419 -4.87569,0.65383 -9.00069,0.93255 l -7.5,0.50675 z m -322.798557,-0.85643 c -1.827966,-1.18132 -0.249086,-1.18132 2.5,0 l 2,0.85943 -1.5,0.055 c -0.825,0.0302 -2.175,-0.38124 -3,-0.9144 z m 388.521857,-9.249995 c -0.8725,-13.33611 -0.25244,-85.35543 0.74344,-86.3498 0.91605,-0.91465 17.65905,-0.8087 18.587,0.11763 0.89208,0.89053 1.46203,80.26085 0.64075,89.232165 l -0.66369,7.25 h -9.31845 -9.31845 z m 44.4944,9.359065 -2.48375,-0.69156 -0.83657,-4.95876 c -1.02036,-6.048105 -0.50187,-87.988475 0.56349,-89.052475 1.41848,-1.41668 19.18799,-2.13868 32.61907,-1.32536 l 13.37851,0.81013 5.38802,2.63611 5.38802,2.63611 3.43406,4.49746 3.43406,4.49746 0.68125,4.54288 0.68125,4.54288 -1.20147,5.36871 -1.20146,5.36872 -4.56985,4.56984 -4.56984,4.56984 0.89153,0.89154 c 0.49035,0.49034 2.89227,1.94954 5.33762,3.24267 l 4.44608,2.35115 3.02677,4.92518 3.02677,4.92519 0.015,7.52161 0.015,7.52161 -1.83725,3.71497 c -2.25984,4.56945 -7.86027,10.112585 -13.39115,13.254185 l -4.15924,2.36249 -6.98767,1.08418 c -7.58358,1.17663 -37.05863,1.31526 -41.0883,0.19324 z m 41.29199,-16.859205 2.99255,-1.74986 1.38978,-4 1.38977,-4 -0.63394,-3.7847 c -0.34866,-2.08159 -1.71046,-5.06409 -3.02622,-6.62777 l -2.39228,-2.84307 -4.45678,-1.12223 c -2.45122,-0.61723 -7.61667,-1.12223 -11.47877,-1.12223 h -7.02199 l -1.03519,1.93426 -1.03518,1.93426 v 11.39907 c 0,6.26949 0.3375,11.75256 0.75,12.18459 0.4125,0.43203 5.43353,0.50697 11.15785,0.16653 l 10.40786,-0.61899 z m -8.80825,-40.35129 c 2.2,-0.59965 4.98124,-1.99621 6.18052,-3.10347 l 2.18053,-2.01319 0.6537,-3.86923 c 0.35954,-2.12807 0.35389,-5.23425 -0.0125,-6.90262 l -0.66625,-3.03339 -3.34096,-2.54828 -3.34097,-2.54828 -9.07702,-0.58808 -9.07701,-0.58807 v 13.14802 13.14802 l 6.25,-0.006 c 3.4375,-0.003 8.05,-0.4962 10.25,-1.09585 z M 90.818373,-92.762095 c 0.825,-0.3059 2.4,-0.9702 3.5,-1.47622 l 2,-0.92004 -1.94113,1.55516 c -1.067621,0.85535 -2.642621,1.51964 -3.5,1.47622 l -1.55887,-0.0789 z m -13.558871,-1.8411 -1.941129,-1.55516 2.25,1.09035 c 1.2375,0.59969 2.25,1.29951 2.25,1.55516 0,0.76522 -0.518608,0.54424 -2.558871,-1.09035 z m -8.036142,-1.69483 -1.904987,-2.25 2.25,1.90499 c 1.2375,1.04774 2.25,2.06024 2.25,2.25 0,0.80025 -0.804795,0.20945 -2.595013,-1.90499 z m 28.821203,-0.32872 c 0.949405,-0.99123 1.94144,-1.58698 2.204517,-1.3239 0.26309,0.26308 -0.513699,1.07408 -1.726186,1.80223 l -2.204521,1.3239 z m -25.353746,-1.17128 -1.372444,-1.75 1.75,1.37244 c 0.9625,0.75485 1.75,1.54235 1.75,1.75 0,0.82304 -0.821186,0.29331 -2.127556,-1.37244 z m 566.627553,1.06396 c -1.1,-0.24972 -4.925,-1.86855 -8.5,-3.597385 l -6.5,-3.14335 -5.5,-5.53661 c -6.58989,-6.63375 -9.84339,-12.90199 -11.05715,-21.30281 l -0.90066,-6.2338 1.064,-6 1.06399,-6 3.46713,-5.71678 c 4.16263,-6.86354 9.78207,-11.90535 17.83028,-15.99747 l 5.9676,-3.03422 8.2674,-0.51579 8.26741,-0.51578 6.76434,2.28487 c 12.05524,4.07206 19.57638,10.33274 24.80149,20.64507 l 2.96417,5.8501 v 10 10 l -2.96971,5.86107 c -7.13326,14.07828 -22.94595,23.869195 -37.99039,23.522925 -2.77195,-0.0638 -5.9399,-0.32032 -7.0399,-0.57004 z m 18.75,-4.955805 3.75,-0.61983 v -8.04187 -8.04186 l 7.50247,-6.91306 7.50248,-6.91307 0.61634,-2.45571 0.61635,-2.45571 -2.65897,-7.20852 c -1.46243,-3.96469 -3.28579,-8.04085 -4.05191,-9.05815 l -1.39295,-1.84964 -3.31691,1.00171 c -1.82429,0.55094 -6.8044,1.55943 -11.0669,2.24109 l -7.75,1.23939 v 1.13603 c 0,0.62482 0.69598,2.1297 1.54663,3.34417 l 1.54663,2.20812 5.70337,1.62007 c 3.13685,0.89104 6.3623,2.24751 7.16765,3.01438 l 1.46429,1.39431 h -1.75412 c -4.55867,0 -16.81291,8.57864 -20.02733,14.02023 l -1.7105,2.89564 3.01647,1.55987 3.01646,1.55988 -1.63516,4.23219 c -2.08919,5.40733 -3.60177,7.15127 -2.31694,2.67134 0.5404,-1.88427 0.98255,-3.48682 0.98255,-3.56123 0,-0.0744 -1.35,-0.69447 -3,-1.37792 -1.65,-0.68345 -3,-1.66039 -3,-2.17098 0,-2.41304 6.75051,-12.90821 10,-15.54722 l 1.5,-1.21819 -2.5,-0.007 c -1.375,-0.004 -5.15735,0.88172 -8.40523,1.9682 -6.9874,2.33742 -8.09443,2.43749 -4.32017,0.39054 l 2.7746,-1.50479 -0.79073,-1.41297 c -0.43491,-0.77713 -3.18089,-3.89462 -6.10218,-6.92775 l -5.31145,-5.51478 -2.92242,2.16064 c -1.60733,1.18835 -2.92242,2.33059 -2.92242,2.53832 0,1.15048 2.21282,4.2462 3.03518,4.2462 0.53065,0 2.75398,1.78916 4.94073,3.97591 l 3.97592,3.97592 -4.97592,-1.96132 -4.97591,-1.96133 v 1.46518 c 0,2.9398 3.48129,10.12341 7.19434,14.84544 l 3.80566,4.8398 v 5.84378 5.84378 l 2.75,0.41659 c 4.55652,0.69025 18.49525,0.73635 22.5,0.0744 z m -9.25,-36.49742 c 0,-1.68111 -6.49824,-11.47819 -10.15711,-15.31338 l -3.77093,-3.95264 -3.0082,2.95264 c -1.65451,1.62396 -3.02071,3.36648 -3.03598,3.87227 -0.0153,0.50579 2.10972,3.76276 4.72222,7.2377 l 4.75,6.31809 5.25,-0.142 c 2.8875,-0.0781 5.25,-0.5158 5.25,-0.97268 z m -2.12751,-13.29479 c 1.52525,-0.78874 3.33117,-2.10641 4.01317,-2.92817 l 1.23999,-1.4941 -1.5885,-3.07184 c -1.81999,-3.51945 -3.07474,-3.73685 -8.00322,-1.38662 -4.08454,1.94778 -4.23771,2.64824 -1.54489,7.06479 2.27881,3.73753 2.20911,3.71601 5.88345,1.81594 z m 16.00251,-3.58125 c 1.44375,-0.008 3.25249,-0.41265 4.01943,-0.89828 l 1.39442,-0.88297 -2.25754,-3.65278 c -1.24166,-2.00904 -3.29509,-4.33261 -4.56318,-5.1635 l -2.30563,-1.51071 -4.1337,2.10886 -4.13369,2.10885 0.68597,2.20292 c 0.37729,1.21161 1.08542,3.26977 1.57361,4.57369 l 0.88764,2.37076 3.10383,-0.62076 c 1.70711,-0.34142 4.28509,-0.62766 5.72884,-0.63608 z m -513.37736,55.127725 c 1.0987,-1.274445 3.3487,-2.952505 5,-3.729015 l 3.00236,-1.41184 -1.88397,1.26422 c -1.03618,0.69532 -3.28618,2.37338 -5,3.72902 l -3.11603,2.464805 z m 40.31486,-2.795525 c 0.72187,-0.28887 1.58437,-0.25335 1.91667,0.0789 0.33229,0.33229 -0.25834,0.56864 -1.3125,0.52522 l -1.91667,-0.0789 z m -54.65461,-2.31689 c 0,-1.375 0.22698,-1.9375 0.50439,-1.25 0.27741,0.6875 0.27741,1.8125 0,2.5 -0.27741,0.6875 -0.50439,0.125 -0.50439,-1.25 z m 45.84211,-0.58331 c -3.38031,-1.87567 -0.97361,-1.80523 2.63569,0.0772 1.57537,0.82161 2.18931,1.45249 1.36431,1.40195 -0.825,-0.0505 -2.625,-0.71613 -4,-1.4791 z m -17.5,-2.44153 c 1.92502,-0.8033 11.26869,-1.35335 10.41667,-0.61321 -0.22917,0.19907 -3.11667,0.60626 -6.41667,0.90487 l -6,0.54292 z m 12.3125,0.34173 c 0.72187,-0.28887 1.58437,-0.25335 1.91667,0.0789 0.33229,0.33229 -0.25834,0.56864 -1.3125,0.52522 l -1.91667,-0.0789 z m -126.846657,-6.06689 -5.46584,-5.75 5.75,5.46584 c 3.1625,3.00621 5.75,5.59371 5.75,5.75 0,0.74225 -0.956222,-0.12391 -6.03416,-5.46584 z m 56.637167,-0.0833 c -0.28327,-0.45834 0.12038,-0.83334 0.89699,-0.83334 0.77661,0 1.18026,0.375 0.897,0.83334 -0.28327,0.4583 -0.68692,0.8333 -0.897,0.8333 -0.21008,0 -0.61373,-0.375 -0.89699,-0.83333 z m -6.044137,-2.6985 c -1.067621,-0.80751 -1.460221,-1.4682 -0.872445,-1.4682 0.587777,0 1.628882,0.675 2.313572,1.5 1.55721,1.87632 1.06734,1.86551 -1.441127,-0.0318 z m -31.55887,0.13879 c 0,-0.21616 0.698372,-0.661 1.551937,-0.98855 l 1.551938,-0.59553 -0.610954,0.98854 c -0.587258,0.95021 -2.492921,1.40545 -2.492921,0.59554 z m 3,-3.05563 c 0,-1.09342 6.647033,-3.8482 9.970298,-4.13206 1.941336,-0.16583 2.629702,-0.0581 1.529702,0.23943 -1.1,0.29751 -3.111383,1.50851 -4.469739,2.6911 l -2.469739,2.15017 1.342183,-1.75 c 1.649701,-2.15095 0.885603,-2.20901 -2.952365,-0.22432 -1.622687,0.83912 -2.95034,1.30068 -2.95034,1.02568 z m 24.863112,-0.0216 c -0.258622,-0.25862 -2.921122,-1.1679 -5.916667,-2.02062 l -5.446445,-1.55039 3.505853,0.41812 c 3.534891,0.42159 11.42284,3.39003 9.410813,3.54154 -0.595833,0.0449 -1.294932,-0.13003 -1.553554,-0.38865 z m 4.568775,-1.63999 c -0.962189,-1.55685 0.21227,-2.18831 2.10257,-1.13045 l 1.68446,0.94268 -1.57743,0.60531 c -0.86759,0.33293 -1.86191,0.14504 -2.2096,-0.41754 z m 3.31811,-6.46176 c -3.738438,-2.02814 -3.51088,-2.87286 0.25,-0.92803 1.65,0.85325 3,1.7648 3,2.02568 0,0.6435 -0.10744,0.60721 -3.25,-1.09765 z m -22.118323,-0.9066 -1.868325,-1.41496 1.951659,0.14702 c 1.073412,0.0808 1.951658,0.7319 1.951658,1.44676 0,0.71486 -0.0375,1.28544 -0.08333,1.26795 -0.04583,-0.0175 -0.92408,-0.66854 -1.951659,-1.44677 z m 15.809455,-3.0766 -1.941129,-1.55516 2.25,1.09035 c 1.2375,0.59969 2.25,1.29951 2.25,1.55516 0,0.76522 -0.518608,0.54424 -2.558871,-1.09035 z m 100.558868,-0.44481 -1.5,-0.96937 1.19098,-0.0153 c 0.65504,-0.008 1.4691,0.43469 1.80902,0.98469 0.7673,1.24153 0.42112,1.24153 -1.5,0 z m -4.55887,-2.55517 -1.94113,-1.55516 2.25,1.09035 c 1.2375,0.59969 2.25,1.29951 2.25,1.55516 0,0.76522 -0.51861,0.54424 -2.55887,-1.09035 z m -62.44113,-12.64854 c -3.025,-2.81212 -4.15,-4.18281 -2.5,-3.04599 2.84696,1.96151 9.36611,8.30079 8.43709,8.20431 -0.2404,-0.025 -2.91209,-2.34621 -5.93709,-5.15832 z m 59.25085,2.05456 c -0.63204,-0.63204 -2.85954,-1.48029 -4.95,-1.885 l -3.80085,-0.73585 3.13921,-0.115 3.13922,-0.115 2.36078,1.96673 c 1.29844,1.0817 2.11329,1.9817 1.81079,2 -0.3025,0.0183 -1.06712,-0.48385 -1.69915,-1.11588 z m -95.250847,-0.22841 c 0,-0.20765 0.7875,-0.99515 1.75,-1.75 l 1.75,-1.37244 -1.372445,1.75 c -1.30637,1.66575 -2.127555,2.19548 -2.127555,1.37244 z m -8.427422,-4.71687 c 1.610082,-1.97694 3.129345,-3.42502 3.37614,-3.21795 0.246795,0.20706 -1.070545,1.82456 -2.927422,3.59443 l -3.37614,3.21795 z m 82.677419,2.4051 c 0.9625,-0.25152 2.5375,-0.25152 3.5,0 0.9625,0.25153 0.175,0.45733 -1.75,0.45733 -1.925,0 -2.7125,-0.2058 -1.75,-0.45733 z m 7.5625,-0.99378 c 0.72187,-0.28887 1.58437,-0.25335 1.91667,0.0789 0.33229,0.33229 -0.25834,0.56864 -1.3125,0.52522 l -1.91667,-0.0789 z m -78.812497,-0.74652 c 0,-0.275 0.9,-0.98167 2,-1.57037 1.099997,-0.5887 1.999997,-0.84537 1.999997,-0.57037 0,0.275 -0.9,0.98167 -1.999997,1.57037 -1.1,0.5887 -2,0.84537 -2,0.57037 z m 24.999997,-3.57037 -1.5,-0.96937 1.19098,-0.0153 c 0.65504,-0.008 1.4691,0.43469 1.80902,0.98469 0.7673,1.24153 0.42112,1.24153 -1.5,0 z m 7.8125,-0.68311 c 0.72187,-0.28887 1.58437,-0.25335 1.91667,0.0789 0.33229,0.3323 -0.25834,0.56864 -1.3125,0.52522 l -1.91667,-0.0789 z m -5.37137,-1.87206 -1.94113,-1.55516 2.5,1.19062 c 3.06103,1.45781 3.62834,1.91971 2.3578,1.91971 -0.53655,0 -1.84905,-0.69982 -2.91667,-1.55517 z m -28.168257,-1.44483 c 1.398424,-1.1 2.869797,-2 3.269717,-2 0.39992,0 -0.417035,0.9 -1.815458,2 -1.398423,1.1 -2.869796,2 -3.269717,2 -0.399921,0 0.417035,-0.9 1.815458,-2 z m -12.813989,-0.0665 c -0.362534,-0.58659 -0.444684,-1.281 -0.182555,-1.54313 0.262128,-0.26213 0.743066,0.21781 1.06875,1.06653 0.676184,1.76211 0.09985,2.07206 -0.886195,0.4766 z m 32.946106,-1.18347 -1.90499,-2.25 2.25,1.90499 c 2.11444,1.79022 2.70524,2.59501 1.90499,2.59501 -0.18976,0 -1.20226,-1.0125 -2.25,-2.25 z m 7.46745,-4 1.37245,-1.75 3.62755,0.16004 3.62756,0.16003 -3.49599,0.42167 c -1.92279,0.23192 -4.17279,0.9474 -5,1.58996 l -1.50401,1.1683 z m -37.993353,-1.02908 c 0.482499,-0.4825 2.169591,-0.71609 3.749093,-0.5191 l 2.871823,0.35818 -3.749094,0.51909 -3.749093,0.5191 z m 158.882573,-9.42818 c 1.24391,-0.23919 3.04391,-0.23011 4,0.0202 0.95609,0.25029 -0.0617,0.446 -2.26166,0.4349 l -4,-0.0202 z m -84.20279,-3.82457 c -1.06762,-0.80751 -1.46022,-1.4682 -0.87245,-1.4682 0.58778,0 1.62889,0.675 2.31358,1.5 1.5572,1.87632 1.06734,1.86551 -1.44113,-0.0318 z m -12.89351,-7.15435 c -2.65905,-0.81285 -4.64808,-1.66447 -4.42006,-1.89249 0.50426,-0.50426 10.7547,2.46695 10.7547,3.11738 0,0.62845 -0.73994,0.48537 -6.33464,-1.22489 z m -19.38519,-3.05013 c 2.6291,-0.20667 6.6791,-0.20418 9,0.006 2.32091,0.20973 0.16983,0.37883 -4.78017,0.37578 -4.95,-0.003 -6.84892,-0.17464 -4.21983,-0.38132 z m -11.01114,-0.95672 c 0.97297,-0.25354 2.32297,-0.23686 3,0.037 0.67703,0.27393 -0.11903,0.48137 -1.76903,0.46099 l -3,-0.0371 z m -7.96326,-3.87996 -2.80577,-2.57295 3.25,2.26101 c 1.7875,1.24356 3.25,2.40139 3.25,2.57295 0,0.78935 -1.10611,0.11236 -3.69423,-2.26101 z m 368.05891,-16.46274 c -9.89822,-2.09876 -15.18441,-13.21991 -10.73783,-22.59037 2.00464,-4.22448 5.44127,-7.01445 10.51136,-8.53349 l 3.86742,-1.15871 4.07953,1.34637 4.07952,1.34637 3.41766,3.99276 3.41766,3.99276 -0.0731,5.57 -0.0731,5.57001 -1.71368,2.91953 c -3.39606,5.78572 -10.34082,8.90913 -16.77546,7.54477 z m -413.364677,-1.34186 c 0,-0.20766 0.7875,-0.99516 1.75,-1.75 l 1.75,-1.37244 -1.372445,1.75 c -1.30637,1.66574 -2.127555,2.19547 -2.127555,1.37244 z"
         id="path405" />
      <path
         style="fill:#a80306"
         d="m 75.07581,-65.226595 -5.184418,-1.93396 -4.28651,-4.47296 c -2.35758,-2.46013 -5.520337,-6.59731 -7.028349,-9.19374 l -2.741839,-4.72077 -0.0082,-10.75989 -0.0082,-10.759875 -7,-7.54951 -7,-7.54951 v -3.49779 c 0,-1.92378 0.520235,-5.56382 1.156079,-8.08899 l 1.156079,-4.5912 -1.264994,-7.78953 -1.264994,-7.78952 3.229924,-5.64532 3.229924,-5.64532 -0.67598,-6.86013 -0.675979,-6.86013 1.664612,-3.21901 1.664613,-3.219 -1.221773,-4.08764 c -0.671975,-2.2482 -2.296314,-6.10905 -3.609642,-8.57968 -1.313328,-2.47062 -2.387869,-5.05812 -2.387869,-5.75 v -1.25795 h 8.04966 8.04966 l 2.765336,-1.43002 c 1.520935,-0.7865 4.536088,-3.55259 6.70034,-6.14686 6.686641,-8.0152 10.544453,-11.3591 14.312317,-12.4057 7.616654,-2.11568 11.992675,-0.76774 15.489201,4.77112 l 2.440642,3.86623 1.58498,8.40352 1.58497,8.40351 2.88135,4.0191 c 1.58474,2.2105 4.70533,5.04625 6.93464,6.30165 l 4.05329,2.28256 11.8268,0.53453 11.82681,0.53454 7.30298,2.13243 7.30297,2.13244 3.79883,3.55048 c 2.08935,1.95276 4.76551,5.26369 5.94702,7.35763 l 2.1482,3.80716 v 9.7665 9.76651 l 9.32231,-0.0551 9.32231,-0.0551 2.67769,1.75449 2.67769,1.75449 v 4.45126 4.45127 l 3.25,1.63364 c 1.7875,0.8985 4.02749,2.59756 4.97776,3.77568 l 1.72777,2.14204 0.0222,4.31462 0.0222,4.31462 -2.12315,4.93538 c -1.16772,2.71446 -2.4207,4.93538 -2.78439,4.93538 -0.36368,0 -1.45871,1.35 -2.43339,3 l -1.77214,3 h -1.99177 c -1.09548,0 -3.7534,-0.85113 -5.9065,-1.89139 -5.71903,-2.76314 -13.59211,-4.42514 -18.09884,-3.82066 -5.15728,0.69174 -13.46663,5.02822 -18.03114,9.410075 l -3.64132,3.49562 -2.02613,6.65317 c -1.11437,3.65925 -2.3207,8.82303 -2.68073,11.47506 l -0.6546,4.82188 -6.26523,-0.67095 -6.26522,-0.67095 -3.61111,4.21876 c -1.98611,2.32033 -4.52287,4.85739 -5.63724,5.63793 l -2.02614,1.41916 -3.27548,-1.65081 c -1.80151,-0.90794 -4.712,-3.01352 -6.46775,-4.67906 l -3.19226,-3.02826 -3.460271,0.56152 c -1.903148,0.30884 -5.191627,1.70443 -7.307732,3.10132 -2.116105,1.39689 -5.660546,3.17726 -7.876536,3.95638 l -4.029072,1.41659 z m 22.581051,-25.23791 c 3.236629,-1.67372 5.393459,-4.04305 7.540919,-8.28386 l 1.62059,-3.200335 v -5.65464 -5.65463 l -2.98421,-4.42176 -2.9842,-4.42175 1.85386,0.99215 c 2.4485,1.3104 4.97921,6.79476 5.75832,12.47897 0.79916,5.83051 1.9386,5.853 2.808,0.0554 l 0.67885,-4.52692 -1.11299,-5.36124 -1.11299,-5.36125 -1.91454,-1.73264 c -1.053,-0.95295 -4.74405,-3.37463 -8.202323,-5.38151 l -6.287774,-3.64888 -0.306068,-3.65823 -0.306067,-3.65823 2.306067,-2.76293 c 1.268337,-1.5196 3.215683,-3.68955 4.327435,-4.82209 2.34368,-2.3875 6.76937,-9.15252 7.88913,-12.05916 l 0.77048,-2 1.65951,4 c 0.91273,2.2 3.34701,7.33688 5.40951,11.41529 l 3.75,7.41529 v 5.59131 c 0,3.07522 -0.46712,7.16334 -1.03804,9.08471 -0.57091,1.92137 -1.05305,7.42291 -1.07142,12.22564 l -0.0334,8.73223 2.18788,6.267765 c 1.20334,3.44727 2.58548,6.69526 3.07143,7.21776 l 0.88354,0.95 v -12.618205 c 0,-12.4451 0.42908,-15.78179 2.02944,-15.78179 1.50532,0 5.96792,18.12774 5.96974,24.249995 0.001,3.92233 1.62866,3.39773 3.10234,-1 1.80196,-5.377325 1.41504,-15.317755 -1.07502,-27.619095 -1.18955,-5.87653 -2.01127,-11.46002 -1.82607,-12.40775 l 0.33674,-1.72315 2.72248,4.85997 c 1.49737,2.67299 3.19385,6.61049 3.76996,8.75 0.57611,2.13952 1.48013,3.89003 2.00893,3.89003 h 0.96146 v -5.3185 c 0,-11.38687 -4.33269,-19.45311 -13.90512,-25.8874 -2.52718,-1.6987 -6.6376,-5.18352 -9.13425,-7.74404 l -4.53935,-4.65549 -2.46064,-5.68022 c -1.35335,-3.12412 -2.75879,-5.6879 -3.12321,-5.69728 -0.36442,-0.009 -1.87707,3.16122 -3.36145,7.0458 l -2.69887,7.06288 -2.628335,2.43712 c -3.486697,3.23305 -4.148768,3.08051 -4.148768,-0.95588 v -3.39301 l -1.581788,-0.60699 c -0.869987,-0.33383 -2.658431,-0.60697 -3.974324,-0.60697 h -2.392532 l -1.643157,3.17751 -1.643157,3.17752 1.808607,1.32248 c 0.994733,0.72737 2.172598,1.32249 2.617476,1.32249 1.553814,0 0.791832,2.70544 -1.293508,4.59265 -1.156309,1.04645 -2.789083,3.23057 -3.628387,4.8536 l -1.526007,2.95097 0.565552,6.74589 0.565551,6.7459 -1.359846,-0.52183 c -1.704268,-0.65398 -2.176878,-1.88855 -3.058449,-7.98933 -0.38767,-2.68282 -0.992837,-5.41994 -1.344815,-6.08249 l -0.63996,-1.20465 -1.311456,0.81053 c -0.721301,0.44578 -1.555635,2.63101 -1.854075,4.85605 l -0.542619,4.04552 2.643474,5.77411 2.643474,5.77411 -1.275029,0.80917 c -0.701266,0.44505 -1.620479,0.81607 -2.042696,0.82449 -0.422216,0.008 -2.318426,1.61217 -4.213799,3.56388 l -3.446133,3.54857 -0.648743,3.45811 c -0.356809,1.90195 -0.337132,5.53608 0.04373,8.07584 l 0.692473,4.617725 3.709416,3.97669 3.709417,3.97669 4.960654,1.3864 4.960654,1.3864 5.336127,-0.50636 c 2.934871,-0.2785 6.535933,-1.1268 8.002361,-1.88512 z m -15.338488,-2.27495 c -1.1,-0.23049 -3.783201,-1.64203 -5.962668,-3.13676 l -3.962668,-2.7177 -1.215082,-4.196775 -1.215083,-4.19679 0.969776,-3.51224 c 0.533377,-1.93173 2.852678,-5.58118 5.154003,-8.10989 l 4.184228,-4.59764 4.357124,0.65339 c 6.381305,0.95694 11.832262,3.09285 14.715133,5.76599 l 2.538304,2.35366 0.59024,3.63721 c 0.83366,5.13723 -0.37161,10.39794 -2.949362,12.873225 -4.640456,4.45601 -11.218892,6.43839 -17.203945,5.18432 z m 50.499997,-65.808565 v -5.5 h -3.3 c -4.05032,0 -5.7,1.51895 -5.7,5.24827 v 2.84828 l 3.25,1.41258 c 1.7875,0.77692 3.8125,1.4302 4.5,1.45173 l 1.25,0.0391 z"
         id="path404" />
      <path
         style="fill:#1b1919"
         d="m 368.8079,-61.283495 1.71482,-6.26453 1.14783,0.1 c 2.64285,0.23025 3.04265,0.49329 3.64782,2.4 0.34913,1.1 1.08296,2 1.63074,2 h 0.99598 l -0.31336,-3.25 -0.31336,-3.25 -2.23084,-0.97888 c -2.71564,-1.19161 -3.21756,-2.3402 -2.54959,-5.8345 l 0.51358,-2.68662 h 2.90486 2.90487 l 0.94863,2.25 c 1.30389,3.09259 5.13537,19.95645 4.64543,20.44639 -0.21819,0.2182 -2.22687,-0.55721 -4.46371,-1.72312 l -4.067,-2.11983 -4.41576,2.5878 -4.41576,2.58781 z m 94.06305,2.48547 c -1.19683,-4.30956 -1.42299,-18.92416 -0.30258,-19.55272 0.4125,-0.23142 2.04186,-0.7302 3.6208,-1.10839 l 2.8708,-0.68763 -0.55253,2.29937 c -0.30389,1.26465 -0.86734,4.09937 -1.25212,6.29937 l -0.6996,4 2.44666,-2.5 2.44667,-2.5 -1.27746,-1.53688 -1.27745,-1.53687 0.57875,-2.21313 c 0.74758,-2.85876 1.28642,-2.78964 4.13981,0.53106 l 2.358,2.74417 -0.57617,2.88083 c -0.31689,1.58445 -0.57616,3.49957 -0.57616,4.25582 v 1.375 h -3.43261 -3.43262 l -0.51407,1.75 c -0.28273,0.9625 -0.81314,3.4375 -1.17867,5.5 -0.36554,2.0625 -1.04338,3.75 -1.50632,3.75 -0.46294,0 -1.31035,-1.6875 -1.88313,-3.75 z m 178.05101,0.2152 -3.10359,-3.53479 v -4.99732 c 0,-2.74853 0.65204,-6.55787 1.44897,-8.46521 l 1.44898,-3.46788 1.80102,-0.15222 c 1.97551,-0.16696 5.09262,-0.15228 7.06573,0.0333 0.69558,0.0654 2.1564,1.58144 3.24626,3.36894 l 1.98156,3.25 0.004,4.29966 c 0.005,5.42708 -2.1936,9.73391 -5.96353,11.68341 -4.03743,2.08784 -4.40682,1.99383 -7.92914,-2.01787 z m 8.46239,-5.9652 c 0.36113,-1.925 0.36113,-5.075 0,-7 l -0.65661,-3.5 h -2.32302 -2.32301 l -0.56468,4.20997 c -0.31057,2.31548 -0.31357,5.46548 -0.007,7 l 0.55834,2.79003 h 2.32969 2.32968 z m -432.56598,-2.13976 v -10.63975 l 1.75,-1.32844 c 2.59847,-1.97252 4.25,-1.66854 4.25,0.78226 v 2.17432 l 2.39216,-2.24732 2.39216,-2.24732 1.60784,2.29551 c 1.98572,2.83502 2.03045,5.5167 0.15209,9.11765 l -1.44344,2.76714 1.4496,4.10858 c 1.92054,5.4434 1.85552,5.85713 -0.92045,5.85713 h -2.37004 l -1.26713,-4.52576 c -0.69693,-2.48917 -1.65541,-4.76573 -2.12996,-5.05902 l -0.86283,-0.53325 v 5.05901 5.05902 h -2.5 -2.5 z m 8.79328,-7.50916 c -2.24287,-1.42287 -2.79423,-0.94365 -2.76001,2.39892 l 0.0333,3.25 2.01001,-2.41423 2.01001,-2.41424 z m 24.20672,6.87844 v -11.52813 l 4.75,-0.39727 4.75,-0.39727 2.67649,2.82364 c 4.68526,4.94285 4.95506,13.42282 0.5582,17.54445 l -2.23469,2.0948 -5.25,0.69396 -5.25,0.69396 z m 8.38775,5.39451 c 0.93376,-1.03179 1.96403,-3.51697 2.28951,-5.52263 l 0.59177,-3.64665 -1.78951,-1.97737 c -0.98422,-1.08756 -2.39475,-1.97738 -3.13451,-1.97738 h -1.34501 v 7.5 c 0,4.125 0.38025,7.5 0.84501,7.5 0.46476,0 1.60899,-0.84419 2.54274,-1.87597 z m 19.61225,-5.4952 v -11.62883 h 4.88921 4.88922 l 2.20598,1.78629 2.20598,1.7863 0.71037,3.9637 c 0.8963,5.00122 -0.15532,10.17045 -2.54912,12.53012 l -1.85164,1.82524 -5.25,0.68301 -5.25,0.683 z m 8.67695,4.74146 c 3.06405,-4.67634 1.63389,-12.37029 -2.2994,-12.37029 h -1.37755 v 7.5 7.5 h 0.97695 c 0.53732,0 1.75232,-1.18337 2.7,-2.62971 z m 10.32305,-3.2885 c 0,-5.45502 0.27314,-10.63002 0.60699,-11.5 l 0.60699,-1.58179 h 4.89301 4.89301 v 2 2 l -1.75,0.0153 c -0.9625,0.008 -2.39129,0.42118 -3.17509,0.91723 l -1.4251,0.90192 3.1751,2.67166 c 3.6234,3.04889 4.02754,4.49388 1.25688,4.49388 -1.05502,0 -2.64945,0.2806 -3.54318,0.62356 l -1.62495,0.62355 1.69815,1.87645 c 0.93399,1.03205 2.75342,1.87645 4.04318,1.87645 h 2.34501 v 2.5 2.5 h -6 -6 z m 29,8.11821 c 0,-0.99 -0.3903,-2.2275 -0.86734,-2.75 -0.77693,-0.85099 -5.13266,-15.98587 -5.13266,-17.83452 0,-0.41158 1.20377,-0.60593 2.67505,-0.4319 l 2.67505,0.31642 1.70649,6 1.7065,6 0.50425,-1.5 c 0.27733,-0.825 1.01804,-3.39361 1.64602,-5.70802 1.20375,-4.43645 1.84566,-5.16783 5.08288,-5.79126 2.09976,-0.40437 2.58207,0.44123 1.16887,2.04928 -0.45918,0.5225 -1.90634,5.5625 -3.21591,11.2 l -2.38102,10.25 h -2.78409 -2.78409 z m 16,0.82267 -1.5,-0.9467 -0.34319,-10.6134 -0.3432,-10.6134 2.8432,0.32541 2.84319,0.32542 0.28275,11.25 0.28275,11.25 -1.28275,-0.0153 c -0.70551,-0.008 -1.95775,-0.44133 -2.78275,-0.96202 z m 9,-9.91813 v -11.16731 l 1.25,-0.47637 c 0.6875,-0.262 3.03023,-0.58537 5.20607,-0.71861 l 3.95607,-0.24225 2.29393,3.39788 2.29393,3.39789 v 4.28701 c 0,8.40198 -2.19472,10.93391 -10.45968,12.06675 l -4.54032,0.62232 z m 10,-1.01955 c 0,-4.68439 -1.25367,-7.08499 -3.7,-7.08499 h -1.3 v 7.52305 7.52306 l 2.5,-1.63807 2.5,-1.63806 z m 37.75,11.22568 -1.75,-0.45732 v -10.92667 -10.92668 h 2.36111 2.36111 l 0.55462,6.11643 c 0.58772,6.48148 -0.14158,16.96249 -1.16674,16.76757 -0.33556,-0.0638 -1.3976,-0.3218 -2.3601,-0.57333 z m 8.25,-10.81067 v -11.5 l 1,-0.125 c 3.47039,-0.4338 4.29448,-0.0974 5.787,2.36242 l 1.66097,2.73742 -1.38671,3.26258 c -0.76269,1.79442 -1.57845,5.85008 -1.8128,9.01258 l -0.4261,5.75 h -2.41118 -2.41118 z m 9.18739,6.49046 c -2.77098,-6.34606 -2.74216,-6.99046 0.31261,-6.99046 h 2.5 v -6 c 0,-6.405 0.0931,-6.55574 3.06574,-4.96482 l 1.93426,1.03519 v 10.96481 10.96482 h -2.81261 -2.81262 z m 10.81261,-6.37524 v -11.61522 l 5.25,0.0333 5.25,0.0333 2.4576,2.04513 2.4576,2.04512 0.3915,6.17161 0.3915,6.1716 -2.46968,2.66187 -2.46968,2.66188 -5.62942,0.70335 -5.62942,0.70335 z m 10.02778,4.33287 c 2.14837,-4.01427 0.71513,-11.06529 -2.5,-12.29906 l -1.52778,-0.58626 v 7.93723 7.93723 l 1.52778,-0.58626 c 0.84028,-0.32245 1.96528,-1.40374 2.5,-2.40288 z m 9.97222,-4.47353 v -11.52543 l 5.5,0.17972 c 6.20217,0.20267 6.87229,1.1833 2.50632,3.66766 -3.02754,1.72276 -4.05494,4.19064 -1.75632,4.2188 0.6875,0.008 1.89163,0.42139 2.67585,0.9177 l 1.42585,0.90239 -3.37296,3.8323 -3.37296,3.8323 4.69711,0.30479 c 5.11382,0.33183 5.66369,1.01049 2.86837,3.54022 l -1.82874,1.65499 h -4.67126 -4.67126 z m 32,0.0254 v -11.49996 h 6 c 3.3,0 5.99311,0.3375 5.98469,0.75 -0.034,1.66323 -1.63966,2.98007 -4.48469,3.67791 l -3,0.73586 3,2.66811 3,2.66812 -2.73885,2.86353 c -3.18301,3.32792 -2.81671,4.63647 1.29787,4.63647 h 2.94098 v 2.5 2.5 h -6 -6 z m 15,-0.5 v -12 h 1.59879 c 2.34791,0 7.14005,5.55906 7.99721,9.27706 l 0.74303,3.22294 0.7308,-2.5 c 0.40195,-1.375 0.77566,-4.1875 0.83049,-6.25 0.10209,-3.8408 1.09481,-4.71488 2.83935,-2.5 1.84222,2.3389 2.37342,7.02924 1.68712,14.89686 l -0.68504,7.85318 h -2.18686 -2.18686 l -2.38624,-5.75 -2.38623,-5.75 -0.6981,2.5 c -0.38396,1.375 -0.74296,3.9625 -0.79778,5.75 l -0.0997,3.25 h -2.5 -2.5 z m 21,0.62883 v -11.62879 h 4.77749 4.7775 l 2.19382,1.53661 c 1.2066,0.84514 2.67407,3.32014 3.26105,5.5 l 1.06723,3.96339 -1.03433,3.8412 c -1.39395,5.17674 -3.57462,6.89516 -9.79749,7.72065 l -5.24527,0.69581 z m 9.5905,1.74045 c 0.83692,-4.46115 -0.16511,-8.07125 -2.60231,-9.3756 l -1.98819,-1.06405 v 8.69017 8.69018 l 1.98044,-1.79228 c 1.08924,-0.98575 2.26377,-3.30254 2.61006,-5.14842 z m 10.4095,-1.86924 v -11.5 h 2.5 2.5 v 9.56574 c 0,9.80203 -0.95581,13.43426 -3.53519,13.43426 h -1.46481 z m 9,0 v -11.5 h 6.00847 6.00848 l -1.25848,2.03713 c -0.69216,1.12043 -2.27097,2.29421 -3.50847,2.60841 -2.89584,0.73526 -2.8477,0.98065 0.79342,4.04445 l 3.04343,2.56088 -2.29343,1.5666 c -4.8374,3.30435 -4.94374,5.18253 -0.29342,5.18253 h 3.5 v 2.5 2.5 h -6 -6 z m 15,0.059 v -11.44099 l 1.09535,-0.67696 c 0.60245,-0.37233 2.08844,-0.14548 3.3022,0.5041 l 2.20686,1.18107 2.59975,5.68688 2.59975,5.68688 0.098,-7.42431 0.0981,-7.42432 2.5,2.34863 2.5,2.34863 v 10.3257 10.32569 l -2.75,-0.006 -2.75,-0.006 -2.67167,-5.74376 -2.67166,-5.74375 -0.0783,5.75 -0.0783,5.75 h -3 -3 z m 24,2.4096 v -9.03139 l -1.75,-0.64567 c -1.79407,-0.66194 -3.20749,-2.20945 -3.23469,-3.54156 -0.0215,-1.05289 13.74821,-0.94165 14.40209,0.11635 0.29449,0.4765 -0.35395,1.67124 -1.44098,2.65499 l -1.97642,1.78864 v 8.84503 8.84501 h -3 -3 z m 13,-2.46862 v -11.49998 h 5.5 5.5 v 1.55202 1.55202 l -3,1.0458 c -1.65,0.5752 -3,1.63277 -3,2.35016 0,0.71739 1.35,1.77496 3,2.35016 1.65,0.57519 3,1.28265 3,1.57214 0,0.28949 -1.35,1.22445 -3,2.0777 l -3,1.55136 v 1.97432 1.97432 h 3.5 3.5 v 2.5 2.5 h -6 -6 z m 24.01474,2.38889 0.0147,-9.38889 1.26479,-2.5 c 0.69564,-1.375 1.9265,-2.5 2.73526,-2.5 h 1.47047 l 0.3029,5.26853 0.3029,5.26852 1.4471,-1.44709 1.4471,-1.4471 v -4.24575 -4.24574 l 2.44908,2.3008 2.44909,2.30079 0.0632,6.12352 c 0.0348,3.36794 0.10245,7.18123 0.15045,8.47399 0.128,3.44705 -1.20037,4.25654 -7.99612,4.87276 l -6.11566,0.55455 z m 9.36595,0.66078 c -0.28547,-0.74392 -1.28061,-1.55174 -2.21142,-1.79515 l -1.69237,-0.44257 0.38615,4.04925 0.38616,4.04926 1.82526,-2.2541 c 1.00389,-1.23975 1.59169,-2.86276 1.30622,-3.60669 z m 59.29947,6.98763 c -1.48741,-1.4874 -5.46039,-13.40817 -6.40146,-19.20729 l -0.51735,-3.18807 1.64364,0.24124 c 2.29925,0.33745 4.3046,3.52375 5.1406,8.16789 0.39098,2.17191 1.05082,4.58696 1.46632,5.36677 l 0.75545,1.41784 0.69849,-3.41784 c 0.38417,-1.87981 1.12886,-5.10534 1.65487,-7.16784 l 0.95637,-3.75 h 2.46145 c 2.86246,0 2.94233,0.47474 1.04565,6.21505 -0.77869,2.35672 -2.18799,7.09745 -3.13177,10.53495 l -1.71597,6.25 h -1.2968 c -0.71324,0 -1.95501,-0.65821 -2.75949,-1.4627 z m 13.81111,-7.81232 c -0.85391,-11.38961 -0.62637,-12.7648 2.29029,-13.84157 l 2.28155,-0.84231 -0.28155,11.71737 -0.28156,11.71737 -1.65259,0.31665 -1.65258,0.31664 z m 9.50873,7.32424 c 0,-3.28023 2.11798,-12.0489 3.5933,-14.87664 0.76691,-1.46992 1.39715,-3.46008 1.40054,-4.42258 l 0.006,-1.75 h 2.98095 2.98094 l 0.6571,2.75 c 0.3614,1.5125 1.49497,6.08448 2.51905,10.15996 2.72641,10.8502 2.41278,12.03695 -2.13804,8.09004 -1.26831,-1.1 -2.95369,-2 -3.74528,-2 -0.7916,0 -2.58343,0.9 -3.98185,2 -3.19492,2.51312 -4.27287,2.52554 -4.27287,0.0492 z m 10,-11.0844 v -4.9648 h -0.96482 c -1.63738,0 -3.03518,3.67019 -3.03518,7.96944 v 4.10093 l 2,-1.07037 2,-1.07037 z"
         id="path403" />
    </g>
  </g>
</svg>
